<svg xmlns="http://www.w3.org/2000/svg" viewBox="0 0 760 28">
<defs><clipPath id="body"><path d="M2 11.5 751 2Q760 14 751 26L2 16.5Z"/></clipPath><linearGradient id="light" x1="0" x2="0" y2="1"><stop stop-color="#000" stop-opacity=".55"/><stop offset=".3" stop-color="#fff" stop-opacity=".35"/><stop offset=".55" stop-color="#fff" stop-opacity="0"/><stop offset="1" stop-color="#000" stop-opacity=".7"/></linearGradient><pattern id="wrap" width="5" height="28" patternUnits="userSpaceOnUse"><path d="M0 0 5 28" stroke="#b79b62" stroke-opacity=".35"/></pattern></defs>
<g clip-path="url(#body)"><path d="M0 0H760V28H0Z" fill="#c5a16a"/><path d="M435 0H760V28H435Z" fill="#171a19"/><path d="M450 14 510 3 490 14 510 25ZM520 14 570 4 551 14 570 24Z" fill="#b79b62"/><path d="M580 0H684V28H580Z" fill="url(#wrap)"/><path d="M430 0V28M439 0V28M578 0V28M686 0V28M738 0V28" stroke="#b79b62" stroke-width="3"/><path d="M0 0H12V28H0Z" fill="#eee6d0"/><path d="M749 0H760V28H749Z" fill="#121412"/><path d="M0 0H760V28H0Z" fill="url(#light)"/></g></svg>
